<svg width="29" height="21" viewBox="0 0 29 21" fill="none" xmlns="http://www.w3.org/2000/svg">
<path d="M0.529297 10.3326C0.836538 9.54744 1.4243 9.25652 2.25029 9.25726C10.6 9.26765 18.9504 9.26394 27.3001 9.2632C27.5509 9.2632 27.7988 9.27062 28.0385 9.35894C28.7108 9.60755 29.0856 10.2487 28.9788 10.9708C28.883 11.6187 28.2982 12.133 27.6058 12.1753C27.4856 12.1827 27.3654 12.179 27.2451 12.179C18.914 12.179 10.5822 12.1753 2.25103 12.1857C1.42504 12.1864 0.83728 11.8955 0.529297 11.1104C0.529297 10.8514 0.529297 10.5916 0.529297 10.3326Z" fill="white"/>
<path d="M18.2774 3.62971C15.205 3.62971 12.1326 3.63268 9.06018 3.62823C8.01601 3.62674 7.33251 2.61225 7.72212 1.64675C7.92398 1.14655 8.30173 0.841538 8.84199 0.76213C9.03346 0.73393 9.22864 0.72354 9.42234 0.72354C15.3445 0.722056 21.2674 0.722798 27.1896 0.721313C27.4405 0.721313 27.6905 0.728735 27.9332 0.791073C28.6353 0.972153 29.0783 1.66159 28.9819 2.4104C28.8943 3.09315 28.2894 3.62674 27.577 3.62749C24.4771 3.63194 21.3773 3.62971 18.2774 3.62971Z" fill="white"/>
<path d="M21.1394 17.8132C23.2775 17.8132 25.4156 17.811 27.5544 17.814C28.2416 17.8147 28.7834 18.2422 28.9555 18.9005C29.1203 19.532 28.8234 20.2044 28.2394 20.5317C27.9715 20.6823 27.6768 20.7179 27.3807 20.7179C23.2248 20.7216 19.0682 20.7231 14.9122 20.7179C14.0929 20.7172 13.5297 20.3038 13.3456 19.607C13.1081 18.7075 13.7857 17.8177 14.7252 17.8147C16.8626 17.8088 19.0006 17.8132 21.1394 17.8132Z" fill="white"/>
</svg>
