<svg width="20" height="21" viewBox="0 0 20 21" fill="none" xmlns="http://www.w3.org/2000/svg">
<path d="M11.2375 10.0041L18.9046 1.71409C19.0561 1.52279 19.1353 1.27671 19.1263 1.02504C19.1173 0.773362 19.0208 0.534623 18.8561 0.356529C18.6914 0.178434 18.4706 0.0741013 18.2378 0.0643802C18.005 0.054659 17.7774 0.140266 17.6005 0.304092L9.93349 8.59409L2.26645 0.294092C2.0923 0.105788 1.8561 0 1.60981 0C1.36352 0 1.12731 0.105788 0.953159 0.294092C0.779006 0.482395 0.681168 0.73779 0.681168 1.00409C0.681168 1.27039 0.779006 1.52579 0.953159 1.71409L8.62944 10.0041L0.953159 18.2941C0.856344 18.3837 0.777713 18.4941 0.7222 18.6181C0.666687 18.7422 0.635492 18.8773 0.630572 19.015C0.625652 19.1528 0.647114 19.2901 0.693611 19.4184C0.740107 19.5467 0.810635 19.6633 0.900766 19.7607C0.990898 19.8582 1.09869 19.9345 1.21737 19.9847C1.33605 20.035 1.46306 20.0582 1.59043 20.0529C1.7178 20.0476 1.84278 20.0138 1.95752 19.9538C2.07226 19.8938 2.17429 19.8088 2.2572 19.7041L9.93349 11.4141L17.6005 19.7041C17.7774 19.8679 18.005 19.9535 18.2378 19.9438C18.4706 19.9341 18.6914 19.8298 18.8561 19.6517C19.0208 19.4736 19.1173 19.2348 19.1263 18.9831C19.1353 18.7315 19.0561 18.4854 18.9046 18.2941L11.2375 10.0041Z" fill="#DDF7FB"/>
</svg>
