<svg width="122" height="79" viewBox="0 0 122 79" fill="none" xmlns="http://www.w3.org/2000/svg">
<g clip-path="url(#clip0_285_19826)">
<path d="M15.859 46.8121H11.6406L3.64385 36.6892V46.8121H0V32.0627L3.64385 31.0741L15.859 46.8121Z" fill="#11234A"/>
<path d="M7.56006 31.6771L14.5851 40.7357V31.6771H7.56006Z" fill="#FF9F00"/>
<path d="M27.8703 33.8025C28.9339 34.4352 29.7809 35.2854 30.4111 36.3531C31.0414 37.4009 31.3566 38.5872 31.3566 39.8921C31.3566 41.1971 31.0414 42.3833 30.4111 43.4312C29.7809 44.4989 28.9339 45.349 27.8703 45.9817C26.8067 46.6144 25.6249 46.9308 24.3249 46.9308C23.0447 46.9308 21.8629 46.6144 20.7993 45.9817C19.7357 45.349 18.8887 44.4989 18.2584 43.4312C17.6281 42.3833 17.313 41.1971 17.313 39.8921C17.313 38.5872 17.6281 37.4009 18.2584 36.3531C18.8887 35.2854 19.7357 34.4352 20.7993 33.8025C21.8629 33.1699 23.0447 32.8535 24.3249 32.8535C25.6249 32.8535 26.8067 33.1699 27.8703 33.8025ZM26.9249 42.4822C27.6339 41.7704 27.9885 40.9005 27.9885 39.8921C27.9885 38.8838 27.6339 38.0139 26.9249 37.3021C26.2158 36.5705 25.3491 36.2147 24.3249 36.2147C23.3204 36.2147 22.4538 36.5705 21.7447 37.3021C21.0356 38.0139 20.6811 38.8838 20.6811 39.8921C20.6811 40.9005 21.0356 41.7704 21.7447 42.4822C22.4538 43.2137 23.3204 43.5696 24.3249 43.5696C25.3491 43.5696 26.2158 43.2137 26.9249 42.4822Z" fill="#11234A"/>
<path d="M40.6139 46.8121H36.4186L31.4551 32.9721H35.0201L38.5261 42.7194L42.0124 32.9721H45.5775L40.6139 46.8121Z" fill="#11234A"/>
<path d="M50.2065 44.0441H55.2882V46.8121H46.8384V32.9721H55.2882V35.7401H50.2065V38.5081H54.6973V41.2761H50.2065V44.0441Z" fill="#11234A"/>
<path d="M59.5029 46.4958C58.6954 46.1597 58.0651 45.6654 57.5727 45.0327C57.1 44.3802 56.8439 43.6092 56.8242 42.6997H60.3893C60.4484 43.2137 60.6256 43.6092 60.9211 43.8662C61.2362 44.143 61.6302 44.2814 62.1029 44.2814C62.615 44.2814 63.0089 44.1628 63.2847 43.9255C63.5801 43.708 63.718 43.3917 63.718 42.9765C63.718 42.6404 63.5998 42.3636 63.3831 42.1263C63.1468 41.9088 62.871 41.7309 62.5362 41.5727C62.2014 41.4343 61.7286 41.2761 61.0984 41.0784C60.212 40.8016 59.4832 40.5248 58.9317 40.248C58.3605 39.9712 57.8878 39.5758 57.4742 39.042C57.0606 38.5081 56.8636 37.7964 56.8636 36.9264C56.8636 35.6413 57.3363 34.6329 58.2621 33.9014C59.2075 33.1698 60.409 32.814 61.8862 32.814C63.4028 32.814 64.624 33.1698 65.5695 33.9014C66.4952 34.6329 66.9876 35.6413 67.0664 36.9462H63.4225C63.4028 36.4914 63.2256 36.1553 62.9301 35.8983C62.6347 35.6413 62.2408 35.5029 61.768 35.5029C61.3741 35.5029 61.0393 35.6215 60.7832 35.839C60.5469 36.0367 60.4287 36.353 60.4287 36.7682C60.4287 37.223 60.6256 37.5789 61.0393 37.8161C61.4726 38.0534 62.1226 38.3302 63.0089 38.6268C63.8953 38.9233 64.624 39.2199 65.1755 39.4967C65.7467 39.7735 66.2194 40.1689 66.6331 40.683C67.0467 41.2168 67.2437 41.889 67.2437 42.7194C67.2437 43.5103 67.0467 44.2221 66.6331 44.8745C66.2391 45.5072 65.6482 46.0213 64.8998 46.4167C64.1513 46.7924 63.2453 46.9703 62.2014 46.9703C61.1968 46.9703 60.2908 46.8121 59.5029 46.4958Z" fill="#11234A"/>
<path d="M71.3208 46.4958C70.5133 46.1597 69.883 45.6654 69.3906 45.0327C68.9178 44.3802 68.6618 43.6092 68.6421 42.6997H72.2072C72.2662 43.2137 72.4435 43.6092 72.739 43.8662C73.0541 44.143 73.448 44.2814 73.9207 44.2814C74.4329 44.2814 74.8268 44.1628 75.1025 43.9255C75.398 43.708 75.5359 43.3917 75.5359 42.9765C75.5359 42.6404 75.4177 42.3636 75.201 42.1263C74.9647 41.9088 74.6889 41.7309 74.3541 41.5727C74.0192 41.4343 73.5465 41.2761 72.9162 41.0784C72.0299 40.8016 71.3011 40.5248 70.7496 40.248C70.1784 39.9712 69.7057 39.5758 69.2921 39.042C68.8784 38.5081 68.6815 37.7964 68.6815 36.9264C68.6815 35.6413 69.1542 34.6329 70.0799 33.9014C71.0254 33.1698 72.2269 32.814 73.7041 32.814C75.2207 32.814 76.4419 33.1698 77.3873 33.9014C78.3131 34.6329 78.8055 35.6413 78.8843 36.9462H75.2404C75.2207 36.4914 75.0435 36.1553 74.748 35.8983C74.4526 35.6413 74.0586 35.5029 73.5859 35.5029C73.192 35.5029 72.8571 35.6215 72.6011 35.839C72.3647 36.0367 72.2465 36.353 72.2465 36.7682C72.2465 37.223 72.4435 37.5789 72.8571 37.8161C73.2905 38.0534 73.9404 38.3302 74.8268 38.6268C75.7131 38.9233 76.4419 39.2199 76.9934 39.4967C77.5646 39.7735 78.0373 40.1689 78.4509 40.683C78.8646 41.2168 79.0615 41.889 79.0615 42.7194C79.0615 43.5103 78.8646 44.2221 78.4509 44.8745C78.057 45.5072 77.4661 46.0213 76.7177 46.4167C75.9692 46.7924 75.0631 46.9703 74.0192 46.9703C73.0147 46.9703 72.1087 46.8121 71.3208 46.4958Z" fill="#11234A"/>
<path d="M86.1492 33.295V43.6157H95.3343L94.4939 46.4035H83.0371V33.2983H86.1492V33.295Z" fill="#06A2EB"/>
<path d="M93.0464 33.295H106.689L105.849 36.0828H100.971V46.4035H97.8589V36.0828H93.0464V33.295Z" fill="#06A2EB"/>
<path d="M111.216 37.1801V43.6157H116.114C117.831 43.6157 118.721 41.6748 118.721 39.7636C118.721 37.9051 117.88 36.0828 116.114 36.0828H108.104L108.945 33.295H116.482C120.116 33.295 122 36.6562 122 39.9679C122 43.2104 120.201 46.4035 116.482 46.4035H108.101V38.027L111.216 37.1801Z" fill="#06A2EB"/>
<path d="M40.7226 24.4968L61.1774 3.96417L81.6322 24.4968H85.4763L85.5288 24.4441L61.1774 0L36.7734 24.4968H40.7226Z" fill="#FF9F00"/>
<path d="M50.282 24.4968L61.1512 13.5896L72.0171 24.4968H73.9933L61.1512 11.6058L48.3091 24.4968H50.282Z" fill="#BCC2CB"/>
<path d="M40.7226 54.4999L61.1774 75.0326L81.6322 54.4999H85.4763L85.5288 54.5527L61.1774 79L36.7734 54.4999H40.7226Z" fill="#06A2EB"/>
<path d="M50.282 54.4999L61.1512 65.4105L72.0171 54.4999H73.9933L61.1512 67.3909L48.3091 54.4999H50.282Z" fill="#BCC2CB"/>
</g>
<defs>
<clipPath id="clip0_285_19826">
<rect width="122" height="79" fill="white"/>
</clipPath>
</defs>
</svg>
